<?xml version="1.0" ?>
<!-- Uploaded to: SVG Repo, www.svgrepo.com, Generator: SVG Repo Mixer Tools -->
<svg fill="#000000" width="800px" height="800px" viewBox="0 0 512 512" id="icon" version="1.1" xml:space="preserve" xmlns="http://www.w3.org/2000/svg" xmlns:xlink="http://www.w3.org/1999/xlink">
<g>
<path d="M422.4236755,371.0281067c-13.6820984,16.1630859-33.6249084,25.4296875-54.716095,25.4296875   c-21.0914001,0-41.0339966-9.2666016-54.7189026-25.4296875c-2.0126648-2.3799133-6.0740967-2.3694153-8.086792,0   c-13.6824036,16.1630859-33.625,25.4296875-54.7161102,25.4296875c-19.5132904,0-37.7719879-7.7402954-51.4152985-21.7976074   c-0.9986877-1.0295715-2.3697968-1.6091919-3.8029022-1.6091919c-1.4332886,0-2.8041992,0.5796204-3.800293,1.6091919   c-13.6459961,14.057312-31.9072876,21.7976074-51.4202881,21.7976074c-19.0271072,0-36.9569931-7.3881836-50.4842072-20.8093872   c-2.0797882-2.0643921-5.4377899-2.0487976-7.4916992,0.0310059c-2.0618057,2.0744934-2.0465012,5.432373,0.0309982,7.4916992   c15.5242004,15.4023743,36.103302,23.8825989,57.9449081,23.8825989c20.635788,0,40.0482941-7.5382996,55.2205811-21.3318176   c15.1697083,13.7935181,34.5821991,21.3318176,55.2182007,21.3318176c22.2086029,0,43.3050079-8.9458008,58.7595978-24.7361145   c15.4566956,15.7903137,36.5533142,24.7361145,58.762207,24.7361145c24.2135925,0,47.1054993-10.6325989,62.802887-29.1755066   c1.8910217-2.2348938,1.6144104-5.5773926-0.6208801-7.4710083   C427.657074,368.5238953,424.3147888,368.7926941,422.4236755,371.0281067z"/>
<path d="M139.746994,356.4584961c20.635788,0,40.0482941-7.5382996,55.2205811-21.3317871   c15.1697083,13.7934875,34.5821991,21.3317871,55.2182007,21.3317871c22.2086029,0,43.3050079-8.9455872,58.7595978-24.7362976   c15.4566956,15.7907104,36.5533142,24.7362976,58.762207,24.7362976c9.6101074,0,18.9865112-1.7389832,27.8128052-4.9184875   c0.5058899-0.1176147,0.9876099-0.3153992,1.4418945-0.5776062c10.7962952-4.1216125,20.6681824-10.4868164,28.9689941-18.8308105   c0.4151917-0.3298035,0.7958984-0.7086792,1.1062012-1.1712036c1.1655273-1.2176819,2.3761902-2.3815002,3.4729919-3.6773987   c1.8910217-2.2350769,1.6144104-5.5773926-0.6208801-7.4709778c-2.2325134-1.8835144-5.5747986-1.614502-7.4659119,0.620575   c-0.2116089,0.25-0.4552917,0.4632263-0.6698914,0.7097168l-78.3659973-50.3579102   c-1.7462158-1.1333008-3.9890137-1.1123047-5.735321,0l-25.3130798,16.3272095   c-48.8217163-31.6511993-92.0509033-59.9002075-95.9777069-63.1197052   c-0.8770905-0.8692932-2.0619965-1.4537964-3.2828979-1.5831909c-3.132782-0.3687134-6.7209015-0.6436005-118.7283936,107.2250824   c-1.7541046-1.4408875-3.4559021-2.9621887-5.0876007-4.5805969c-2.0797882-2.0646973-5.4377899-2.0487976-7.4916992,0.0310059   c-2.0618057,2.0744934-2.0465012,5.4326172,0.0309982,7.4916992   C97.3262863,347.9784851,117.9053879,356.4584961,139.746994,356.4584961z M340.5292664,281.540802l73.4562988,47.1998901   c-5.7728882,4.9051208-12.2233887,8.8291016-19.1523743,11.6743164   c-22.2557068-14.3361206-47.9082031-30.8991089-72.7388-46.9819031L340.5292664,281.540802z M212.3672791,234.0034027   c9.9347229,7.0737,44.6454163,30.2190094,169.1535034,110.441391c-4.5161133,0.8885193-9.127594,1.4176941-13.8132019,1.4176941   c-21.0914001,0-41.0339966-9.2662964-54.7189026-25.4299011c-2.0126648-2.3798828-6.0740967-2.3693848-8.086792,0   c-13.6824036,16.1636047-33.625,25.4299011-54.7161102,25.4299011c-19.5132904,0-37.7719879-7.7401733-51.4152985-21.7975769   c-0.9986877-1.0295105-2.3697968-1.6088257-3.8029022-1.6088257c-1.4332886,0-2.8041992,0.5793152-3.800293,1.6088257   c-13.6459961,14.0574036-31.9072876,21.7975769-51.4202881,21.7975769c-13.0564117,0-25.5571136-3.5543823-36.5123062-10.0750732   C141.9095764,298.5952148,199.4390869,244.1040039,212.3672791,234.0034027z"/>
<path d="M302.0226746,202.7686005c7.5386963,0,14.5363159,4.4096069,19.4407959,11.8327026h-2.7497864   c-2.9259033,0-5.2982178,2.3695984-5.2982178,5.2978973c0,2.9286957,2.3723145,5.2980957,5.2982178,5.2980957h22.8554077   c2.9259949,0,5.2980957-2.3694,5.2980957-5.2980957c0-2.928299-2.3721008-5.2978973-5.2980957-5.2978973h-2.7472229   c4.9044189-7.4230957,11.9015198-11.8327026,19.4381409-11.8327026c2.9258728,0,5.2981567-2.3694,5.2981567-5.2978973   c0-2.9286957-2.3722839-5.2980957-5.2981567-5.2980957c-11.1005249,0-21.2567444,6.0326996-28.1175232,16.2614899   c-6.8604126-10.2287903-17.0166016-16.2614899-28.119812-16.2614899c-2.9256897,0-5.2980042,2.3694-5.2980042,5.2980957   C296.7246704,200.3992004,299.0969849,202.7686005,302.0226746,202.7686005z"/>
<path d="M221.8844757,163.6542969c7.5375214,0,14.5351105,4.4105988,19.4400024,11.8376007h-2.7489929   c-2.925705,0-5.2978973,2.3694-5.2978973,5.2980957c0,2.9285126,2.3721924,5.298111,5.2978973,5.298111h22.8556976   c2.9256897,0,5.2980042-2.3695984,5.2980042-5.298111c0-2.9286957-2.3723145-5.2980957-5.2980042-5.2980957h-2.7511902   c4.9053955-7.427002,11.9046021-11.8376007,19.4420166-11.8376007c2.9258728,0,5.2980042-2.3699036,5.2980042-5.2980957   c0-2.9284973-2.3721313-5.2980957-5.2980042-5.2980957c-11.1005249,0-21.2594299,6.0329895-28.1201324,16.2666016   c-6.8604889-10.2336121-17.0166931-16.2666016-28.1174011-16.2666016c-2.9256897,0-5.2979889,2.3695984-5.2979889,5.2980957   C216.5864868,161.2843933,218.958786,163.6542969,221.8844757,163.6542969z"/>
<path d="M318.7136841,115.5425034c7.5372009,0,14.5365906,4.4104004,19.4421082,11.8375931h-2.7512207   c-2.9259949,0-5.2981873,2.3699036-5.2981873,5.298111c0,2.9284973,2.3721924,5.2980957,5.2981873,5.2980957h22.8554382   c2.9258728,0,5.2981567-2.3695984,5.2981567-5.2980957c0-2.9282074-2.3722839-5.298111-5.2981567-5.298111h-2.7488403   c4.9046936-7.4271927,11.9024048-11.8375931,19.4398193-11.8375931c2.9256897,0,5.2980042-2.369606,5.2980042-5.2981033   c0-2.9287033-2.3723145-5.2981033-5.2980042-5.2981033c-11.1005249,0-21.256897,6.0326996-28.1174011,16.2667999   c-6.8605042-10.2341003-17.0194092-16.2667999-28.1199036-16.2667999c-2.9259033,0-5.2982178,2.3694-5.2982178,5.2981033   C313.4154663,113.1728973,315.7877808,115.5425034,318.7136841,115.5425034z"/>
</g>
</svg>